<svg width="45" height="45" viewBox="0 0 45 45" fill="none" xmlns="http://www.w3.org/2000/svg">
<path d="M15 20.625C15 20.1277 15.1976 19.6508 15.5492 19.2992C15.9008 18.9475 16.3777 18.75 16.875 18.75H28.125C28.6223 18.75 29.0992 18.9475 29.4509 19.2992C29.8025 19.6508 30 20.1277 30 20.625C30 21.1223 29.8025 21.5992 29.4509 21.9508C29.0992 22.3024 28.6223 22.5 28.125 22.5H16.875C16.3777 22.5 15.9008 22.3024 15.5492 21.9508C15.1976 21.5992 15 21.1223 15 20.625ZM16.875 26.25C16.3777 26.25 15.9008 26.4475 15.5492 26.7992C15.1976 27.1508 15 27.6277 15 28.125C15 28.6223 15.1976 29.0992 15.5492 29.4508C15.9008 29.8024 16.3777 30 16.875 30H24.375C24.8723 30 25.3492 29.8024 25.7009 29.4508C26.0525 29.0992 26.25 28.6223 26.25 28.125C26.25 27.6277 26.0525 27.1508 25.7009 26.7992C25.3492 26.4475 24.8723 26.25 24.375 26.25H16.875ZM3.75002 22.5C3.75096 18.3892 5.1028 14.3927 7.59749 11.1255C10.0922 7.85825 13.5915 5.5014 17.5568 4.41764C21.5221 3.33388 25.7337 3.58329 29.5434 5.12747C33.3531 6.67166 36.5497 9.42504 38.6414 12.9639C40.733 16.5027 41.6037 20.6308 41.1195 24.713C40.6353 28.7951 38.8229 32.605 35.9614 35.5563C33.0999 38.5075 29.3478 40.4366 25.2825 41.0467C21.2173 41.6567 17.0642 40.9139 13.4625 38.9325L6.17252 41.1525C5.84736 41.2515 5.50139 41.2603 5.17162 41.1779C4.84185 41.0955 4.54068 40.925 4.30032 40.6847C4.05997 40.4443 3.88948 40.1432 3.80708 39.8134C3.72468 39.4836 3.73347 39.1377 3.83252 38.8125L6.05252 31.5112C4.53735 28.7497 3.74529 25.6499 3.75002 22.5ZM22.5 7.5C19.8373 7.49977 17.2225 8.20835 14.9242 9.55296C12.6259 10.8976 10.7269 12.8297 9.42238 15.151C8.11781 17.4722 7.45466 20.0989 7.50104 22.7613C7.54742 25.4236 8.30165 28.0256 9.68627 30.3C9.82372 30.5259 9.91181 30.7784 9.94478 31.0408C9.97774 31.3032 9.95482 31.5696 9.87752 31.8225L8.44127 36.5437L13.155 35.1075C13.4087 35.0302 13.676 35.0076 13.9391 35.0412C14.2022 35.0748 14.4551 35.1639 14.6813 35.3025C16.6582 36.5095 18.8878 37.2422 21.1953 37.4433C23.5028 37.6445 25.8255 37.3084 27.9814 36.4617C30.1374 35.6149 32.0679 34.2803 33.6217 32.5626C35.1755 30.8448 36.3105 28.7906 36.9375 26.5608C37.5646 24.3311 37.6668 21.9864 37.236 19.7106C36.8053 17.4347 35.8533 15.2895 34.4548 13.4431C33.0563 11.5968 31.2492 10.0993 29.1751 9.06823C27.101 8.03713 24.8163 7.50036 22.5 7.5Z" fill="white"/>
</svg>
