<svg width="45" height="45" viewBox="0 0 45 45" fill="none" xmlns="http://www.w3.org/2000/svg">
<path d="M21.3487 4.14378C21.6779 3.88774 22.083 3.74873 22.5 3.74873C22.917 3.74873 23.3221 3.88774 23.6513 4.14378L39.0787 16.1438C39.7553 16.6701 40.3027 17.3441 40.679 18.1142C41.0553 18.8844 41.2506 19.7304 41.25 20.5875V37.5C41.25 38.4946 40.8549 39.4484 40.1516 40.1517C39.4484 40.8549 38.4946 41.25 37.5 41.25H30C29.0054 41.25 28.0516 40.8549 27.3484 40.1517C26.6451 39.4484 26.25 38.4946 26.25 37.5V26.25H18.75V37.5C18.75 38.4946 18.3549 39.4484 17.6516 40.1517C16.9484 40.8549 15.9946 41.25 15 41.25H7.5C6.50544 41.25 5.55161 40.8549 4.84835 40.1517C4.14509 39.4484 3.75 38.4946 3.75 37.5V20.5875C3.75 18.8475 4.5525 17.2125 5.925 16.1438L21.3487 4.14378ZM22.5 7.99878L8.22375 19.1025C7.99772 19.2784 7.81497 19.5036 7.68952 19.761C7.56406 20.0184 7.49923 20.3012 7.5 20.5875V37.5H15V26.25C15 25.2555 15.3951 24.3016 16.0984 23.5984C16.8016 22.8951 17.7554 22.5 18.75 22.5H26.25C27.2446 22.5 28.1984 22.8951 28.9016 23.5984C29.6049 24.3016 30 25.2555 30 26.25V37.5H37.5V20.5875C37.5008 20.3012 37.4359 20.0184 37.3105 19.761C37.185 19.5036 37.0023 19.2784 36.7762 19.1025L22.5 8.00253V7.99878Z" fill="white"/>
</svg>
