<svg width="45" height="45" viewBox="0 0 45 45" fill="none" xmlns="http://www.w3.org/2000/svg">
<path d="M22.5 3.75188C26.1053 3.75188 29.5629 5.18408 32.1122 7.7334C34.6616 10.2827 36.0937 13.7403 36.0937 17.3456C36.0937 21.2756 34.4062 24.8831 31.1006 28.1119C30.957 28.2522 30.8452 28.4216 30.7725 28.6088L30.7125 28.8019L28.5937 37.98C28.3915 38.8554 27.9151 39.6435 27.2338 40.2293C26.5526 40.8151 25.7021 41.1681 24.8062 41.2369L24.4819 41.25H20.5181C19.6197 41.25 18.7448 40.9632 18.0207 40.4314C17.2966 39.8995 16.7612 39.1504 16.4925 38.2931L16.4081 37.98L14.2894 28.8019C14.2293 28.5397 14.0952 28.3002 13.9031 28.1119C10.7531 25.0369 9.07125 21.6188 8.9175 17.9044L8.90625 17.3456L8.91375 16.8956C9.03099 13.3705 10.5138 10.029 13.0489 7.57682C15.584 5.12462 18.973 3.75376 22.5 3.75376V3.75188ZM26.4656 34.6856H18.5325L19.1494 37.3481C19.2138 37.6251 19.3606 37.876 19.5704 38.0678C19.7803 38.2596 20.0434 38.3833 20.325 38.4225L20.5181 38.4375H24.4819C24.7666 38.4372 25.0445 38.3504 25.2789 38.1887C25.5133 38.027 25.693 37.798 25.7944 37.5319L25.8506 37.3463L26.4656 34.6856ZM22.5 6.56438C19.712 6.56428 17.0323 7.64423 15.0235 9.57753C13.0147 11.5108 11.8329 14.1472 11.7263 16.9331L11.7187 17.3456L11.7319 17.865C11.8744 20.7956 13.2319 23.5275 15.8681 26.1C16.3631 26.5838 16.7306 27.18 16.9388 27.8363L17.0306 28.17L17.8837 31.8731H27.1144L27.9731 28.1681C28.1278 27.4954 28.4452 26.8709 28.8975 26.3494L29.1356 26.1C31.7681 23.5256 33.1256 20.7975 33.2681 17.865L33.2812 17.3456L33.2737 16.9331C33.1676 14.1468 31.986 11.51 29.9771 9.57633C27.9682 7.64263 25.2883 6.56243 22.5 6.56251V6.56438Z" fill="white"/>
</svg>
