<svg width="45" height="45" viewBox="0 0 45 45" fill="none" xmlns="http://www.w3.org/2000/svg">
<path d="M22.95 5.5575C22.7417 5.55758 22.536 5.60407 22.3479 5.69358C22.1598 5.7831 21.994 5.91339 21.8625 6.075L21.7538 6.15563C19.715 5.53513 17.5462 5.4782 15.4777 5.99087C13.4092 6.50355 11.518 7.5667 10.005 9.0675C8.66395 10.3955 7.66669 12.0304 7.09953 13.8305C6.53238 15.6306 6.41241 17.5418 6.75001 19.3988L6.72189 19.4269L4.92564 21.21C4.55471 21.5775 4.26028 22.0148 4.05934 22.4968C3.8584 22.9787 3.75494 23.4957 3.75494 24.0178C3.75494 24.54 3.8584 25.0569 4.05934 25.5389C4.26028 26.0208 4.55471 26.4581 4.92564 26.8256C5.3619 27.2589 5.89208 27.586 6.47508 27.7814C7.05808 27.9768 7.67824 28.0353 8.28751 27.9525C8.50479 28.7431 8.96022 29.4475 9.5919 29.9702C10.2236 30.4929 11.0009 30.8083 11.8181 30.8738C11.9022 31.8352 12.3315 32.7337 13.0267 33.4031C13.722 34.0725 14.6361 34.4675 15.6 34.515C15.6488 35.4656 16.0369 36.3994 16.7663 37.1231C18.1913 38.5406 20.4263 38.6625 21.9919 37.4925L22.7175 38.2125C23.4728 38.9609 24.493 39.3807 25.5563 39.3807C26.6195 39.3807 27.6397 38.9609 28.395 38.2125C29.0888 37.5225 29.4769 36.6413 29.5575 35.7413C30.4932 35.662 31.3709 35.2553 32.0362 34.5927C32.7015 33.9301 33.1119 33.0541 33.195 32.1188C34.0192 32.043 34.7994 31.7129 35.4276 31.174C36.0558 30.6352 36.5009 29.9143 36.7013 29.1113C37.3014 29.1832 37.91 29.1183 38.4815 28.9215C39.053 28.7247 39.5726 28.4011 40.0013 27.975C40.3719 27.6075 40.6661 27.1703 40.8669 26.6886C41.0676 26.2068 41.171 25.6901 41.171 25.1681C41.171 24.6462 41.0676 24.1295 40.8669 23.6477C40.6661 23.1659 40.3719 22.7287 40.0013 22.3613L38.4394 20.8069L38.7619 19.5581C39.4596 16.8406 39.1081 13.96 37.7775 11.49C36.8094 9.69682 35.3738 8.19918 33.6232 7.15601C31.8726 6.11284 29.8722 5.56306 27.8344 5.565H24.8213C24.6926 5.55938 24.5638 5.55688 24.435 5.5575H22.9519H22.95ZM28.4344 14.8294L34.9294 21.2831L34.935 21.2906L34.9613 21.315L38.0081 24.3431C38.117 24.4512 38.2034 24.5797 38.2623 24.7213C38.3213 24.8629 38.3516 25.0148 38.3516 25.1681C38.3516 25.3215 38.3213 25.4734 38.2623 25.615C38.2034 25.7565 38.117 25.8851 38.0081 25.9931C37.787 26.2118 37.4885 26.3345 37.1775 26.3345C36.8665 26.3345 36.568 26.2118 36.3469 25.9931L33.3 22.965C33.0346 22.7021 32.6761 22.5546 32.3025 22.5546C31.9289 22.5546 31.5704 22.7021 31.305 22.965L31.275 22.9969C31.1441 23.1266 31.0402 23.2809 30.9693 23.451C30.8984 23.6211 30.8619 23.8035 30.8619 23.9878C30.8619 24.1721 30.8984 24.3545 30.9693 24.5246C31.0402 24.6947 31.1441 24.8491 31.275 24.9788L33.6488 27.3394C33.7576 27.4474 33.844 27.576 33.9029 27.7176C33.9619 27.8591 33.9923 28.011 33.9923 28.1644C33.9923 28.3178 33.9619 28.4696 33.9029 28.6112C33.844 28.7528 33.7576 28.8813 33.6488 28.9894C33.4485 29.1887 33.1835 29.3096 32.9018 29.3302C32.6201 29.3508 32.3403 29.2698 32.1131 29.1019C31.8404 28.8977 31.5032 28.7986 31.1634 28.8227C30.8235 28.8468 30.5037 28.9925 30.2625 29.2331C30.0223 29.4733 29.878 29.7928 29.8565 30.1318C29.8351 30.4708 29.9382 30.8059 30.1463 31.0744C30.3192 31.2989 30.4042 31.5789 30.3852 31.8617C30.3662 32.1445 30.2446 32.4106 30.0431 32.61C29.8394 32.812 29.569 32.9328 29.2827 32.9501C28.9963 32.9673 28.7134 32.8798 28.4869 32.7038C28.2158 32.4923 27.8772 32.3866 27.534 32.4062C27.1908 32.4259 26.8664 32.5696 26.6213 32.8106C26.377 33.051 26.2297 33.3729 26.2076 33.7149C26.1854 34.0569 26.29 34.3951 26.5013 34.665C26.6784 34.893 26.7659 35.178 26.7473 35.4661C26.7286 35.7542 26.6051 36.0255 26.4 36.2288C26.1754 36.4509 25.8722 36.5755 25.5563 36.5755C25.2403 36.5755 24.9372 36.4509 24.7125 36.2288L24.015 35.5369L24.2119 35.34C24.5825 34.9725 24.8767 34.5353 25.0775 34.0536C25.2783 33.5718 25.3816 33.0551 25.3816 32.5331C25.3816 32.0112 25.2783 31.4945 25.0775 31.0127C24.8767 30.5309 24.5825 30.0937 24.2119 29.7263C23.5106 29.0282 22.5752 28.6152 21.5869 28.5675C21.5334 27.6042 21.1328 26.6929 20.4593 26.0021C19.7857 25.3113 18.8848 24.8878 17.9231 24.81C17.8464 23.8709 17.436 22.9903 16.7663 22.3275C16.33 21.8942 15.7998 21.5672 15.2168 21.3718C14.6338 21.1763 14.0137 21.1178 13.4044 21.2006C13.1664 20.3376 12.6457 19.5794 11.9257 19.0474C11.2057 18.5154 10.328 18.2403 9.43314 18.2663C9.29075 16.9474 9.4476 15.6135 9.89202 14.3637C10.3364 13.1139 11.057 11.9804 12 11.0475C12.8788 10.1745 13.9295 9.49366 15.0853 9.04823C16.2412 8.6028 17.477 8.40249 18.7144 8.46L15.9075 10.5844C15.4514 10.9296 15.068 11.3616 14.7795 11.8555C14.4909 12.3495 14.3029 12.8956 14.2262 13.4625C14.1496 14.0293 14.1858 14.6058 14.3327 15.1586C14.4797 15.7114 14.7345 16.2298 15.0825 16.6838C15.7854 17.6 16.8221 18.2012 17.9665 18.3561C19.1109 18.511 20.2701 18.2071 21.1913 17.5106L24.7331 14.8275H28.4344V14.8294ZM17.6044 12.8288L23.49 8.37H24.435C24.552 8.36916 24.6689 8.37228 24.7856 8.37938H27.8344C29.3641 8.37732 30.8658 8.78932 32.1803 9.57167C33.4948 10.354 34.573 11.4776 35.3006 12.8231C36.2288 14.5481 36.5194 16.5319 36.1331 18.4388L30.1125 12.4463C29.9815 12.3106 29.8245 12.2026 29.6508 12.1288C29.4772 12.0551 29.2905 12.017 29.1019 12.0169H24.2625C23.9559 12.0167 23.6576 12.1168 23.4131 12.3019L19.4944 15.27C19.1657 15.518 18.7525 15.6262 18.3444 15.5711C17.9364 15.516 17.5667 15.302 17.3156 14.9756C17.193 14.8159 17.1033 14.6334 17.0515 14.4388C16.9997 14.2442 16.987 14.0412 17.014 13.8417C17.041 13.6421 17.1072 13.4499 17.2089 13.276C17.3105 13.1022 17.4456 12.9502 17.6063 12.8288H17.6044ZM11.3156 27.7444C11.2068 27.6363 11.1204 27.5078 11.0615 27.3662C11.0025 27.2246 10.9721 27.0728 10.9721 26.9194C10.9721 26.766 11.0025 26.6141 11.0615 26.4726C11.1204 26.331 11.2068 26.2024 11.3156 26.0944L13.11 24.3094C13.3312 24.0907 13.6296 23.968 13.9406 23.968C14.2517 23.968 14.5501 24.0907 14.7713 24.3094C14.9885 24.525 15.112 24.8177 15.1148 25.1238C15.1176 25.4299 14.9995 25.7248 14.7863 25.9444L14.7713 25.9594L12.9769 27.7425L12.96 27.7594C12.7377 27.971 12.4417 28.0878 12.1348 28.085C11.8279 28.0822 11.5341 27.96 11.3156 27.7444ZM10.395 21.4275C10.6076 21.647 10.7249 21.9415 10.7213 22.247C10.7178 22.5525 10.5938 22.8442 10.3763 23.0588L8.58189 24.8438C8.36075 25.0625 8.06228 25.1851 7.75126 25.1851C7.44024 25.1851 7.14178 25.0625 6.92064 24.8438C6.81179 24.7357 6.7254 24.6072 6.66645 24.4656C6.6075 24.324 6.57715 24.1721 6.57715 24.0188C6.57715 23.8654 6.6075 23.7135 6.66645 23.5719C6.7254 23.4303 6.81179 23.3018 6.92064 23.1938L8.71689 21.4106C8.93803 21.1919 9.2365 21.0693 9.54751 21.0693C9.85853 21.0693 10.157 21.1919 10.3781 21.4106L10.395 21.4275ZM20.4225 35.1413C20.2014 35.36 19.9029 35.4826 19.5919 35.4826C19.2809 35.4826 18.9824 35.36 18.7613 35.1413C18.6524 35.0332 18.566 34.9047 18.5071 34.7631C18.4481 34.6215 18.4178 34.4696 18.4178 34.3163C18.4178 34.1629 18.4481 34.011 18.5071 33.8694C18.566 33.7278 18.6524 33.5993 18.7613 33.4913L20.5556 31.7081C20.7768 31.4894 21.0752 31.3668 21.3863 31.3668C21.6973 31.3668 21.9957 31.4894 22.2169 31.7081C22.3257 31.8162 22.4121 31.9447 22.4711 32.0863C22.53 32.2279 22.5604 32.3798 22.5604 32.5331C22.5604 32.6865 22.53 32.8384 22.4711 32.98C22.4121 33.1215 22.3257 33.2501 22.2169 33.3581L20.4225 35.1413ZM16.6331 31.3763C16.4122 31.5954 16.1137 31.7184 15.8025 31.7184C15.4913 31.7184 15.1928 31.5954 14.9719 31.3763C14.7544 31.1609 14.6306 30.8683 14.6274 30.5622C14.6243 30.2561 14.742 29.9611 14.955 29.7413L14.9719 29.7263L16.7663 27.9431L16.7813 27.9263C17.0039 27.7143 17.3004 27.5975 17.6078 27.6007C17.9152 27.6038 18.2092 27.7267 18.4275 27.9431C18.5364 28.0512 18.6227 28.1797 18.6817 28.3213C18.7407 28.4629 18.771 28.6148 18.771 28.7681C18.771 28.9215 18.7407 29.0734 18.6817 29.215C18.6227 29.3565 18.5364 29.4851 18.4275 29.5931L16.6331 31.3763Z" fill="white"/>
</svg>
