<svg width="50" height="50" viewBox="0 0 50 50" fill="none" xmlns="http://www.w3.org/2000/svg">
<path d="M11.5333 45.5959C11.8703 45.7711 12.2487 45.8513 12.6279 45.8279C13.007 45.8044 13.3726 45.6781 13.6854 45.4625L40.7687 26.7125C41.0455 26.5208 41.2716 26.2648 41.4278 25.9666C41.584 25.6683 41.6656 25.3367 41.6656 25C41.6656 24.6633 41.584 24.3317 41.4278 24.0334C41.2716 23.7352 41.0455 23.4792 40.7687 23.2875L13.6854 4.53752C13.3732 4.31971 13.0072 4.1918 12.6273 4.16774C12.2473 4.14367 11.8681 4.22436 11.5309 4.40102C11.1937 4.57768 10.9115 4.84352 10.715 5.16957C10.5185 5.49561 10.4153 5.86934 10.4166 6.25002V43.75C10.4166 44.1303 10.5206 44.5034 10.7174 44.8287C10.9143 45.1541 11.1964 45.4194 11.5333 45.5959ZM14.5833 10.2271L35.9229 25L14.5833 39.7729V10.2271Z" fill="#0085FF"/>
</svg>
