<svg width="50" height="50" viewBox="0 0 50 50" fill="none" xmlns="http://www.w3.org/2000/svg">
<path d="M38.4667 4.40415C38.1296 4.22886 37.7513 4.14865 37.3721 4.17214C36.993 4.19563 36.6274 4.32193 36.3146 4.53748L9.23125 23.2875C8.9545 23.4792 8.72835 23.7352 8.57214 24.0334C8.41594 24.3317 8.33435 24.6633 8.33435 25C8.33435 25.3367 8.41594 25.6683 8.57214 25.9666C8.72835 26.2648 8.9545 26.5208 9.23125 26.7125L36.3146 45.4625C36.6268 45.6803 36.9928 45.8082 37.3727 45.8323C37.7526 45.8563 38.1319 45.7756 38.4691 45.599C38.8063 45.4223 39.0885 45.1565 39.285 44.8304C39.4815 44.5044 39.5847 44.1307 39.5833 43.75L39.5833 6.24998C39.5834 5.8697 39.4794 5.49665 39.2825 5.17127C39.0857 4.84589 38.8035 4.5806 38.4667 4.40415ZM35.4167 39.7729L14.0771 25L35.4167 10.2271L35.4167 39.7729Z" fill="#0085FF"/>
</svg>
