<svg width="48" height="49" viewBox="0 0 48 49" fill="none" xmlns="http://www.w3.org/2000/svg">
<path fill-rule="evenodd" clip-rule="evenodd" d="M14.1403 0.483026C16.6872 0.364678 17.4993 0.338379 23.9872 0.338379C30.4752 0.338379 31.2872 0.36687 33.832 0.483026C36.3768 0.599182 38.1139 1.00901 39.6338 1.60294C41.2254 2.21002 42.6693 3.15899 43.8636 4.3863C45.0795 5.5895 46.0175 7.04473 46.6168 8.65338C47.2074 10.1875 47.6113 11.9408 47.7285 14.505C47.8458 17.0802 47.8718 17.8998 47.8718 24.4462C47.8718 30.9947 47.8436 31.8144 47.7285 34.3852C47.6134 36.9494 47.2074 38.7027 46.6168 40.2368C46.0175 41.8457 45.0779 43.3033 43.8636 44.5083C42.6693 45.7356 41.2254 46.6824 39.6338 47.2872C38.1139 47.8834 36.3768 48.291 33.8364 48.4093C31.2872 48.5277 30.4752 48.554 23.9872 48.554C17.4993 48.554 16.6872 48.5255 14.1403 48.4093C11.5998 48.2932 9.86277 47.8834 8.34284 47.2872C6.74892 46.6823 5.30477 45.7339 4.11093 44.5083C2.89581 43.3043 1.95549 41.8474 1.35552 40.239C0.767087 38.7049 0.36322 36.9516 0.245969 34.3874C0.128717 31.8122 0.102661 30.9926 0.102661 24.4462C0.102661 17.8976 0.130888 17.078 0.245969 14.5094C0.361049 11.9408 0.767087 10.1875 1.35552 8.65338C1.95637 7.04491 2.89742 5.58799 4.1131 4.38411C5.30525 3.1579 6.74794 2.2088 8.34067 1.60294C9.8606 1.00901 11.5977 0.601373 14.1381 0.483026H14.1403ZM33.6388 4.82243C31.1201 4.70628 30.3644 4.68217 23.9872 4.68217C17.6101 4.68217 16.8544 4.70628 14.3357 4.82243C12.0059 4.92982 10.7422 5.32212 9.89968 5.65305C8.78579 6.09138 7.98892 6.61079 7.15296 7.45457C6.36052 8.2327 5.75067 9.17999 5.36813 10.227C5.04026 11.0773 4.65159 12.3528 4.54519 14.7044C4.43011 17.2467 4.40623 18.0094 4.40623 24.4462C4.40623 30.883 4.43011 31.6457 4.54519 34.1879C4.65159 36.5395 5.04026 37.8151 5.36813 38.6654C5.75028 39.7108 6.36042 40.6598 7.15296 41.4378C7.92378 42.2378 8.86396 42.8536 9.89968 43.2393C10.7422 43.5703 12.0059 43.9626 14.3357 44.0699C16.8544 44.1861 17.6079 44.2102 23.9872 44.2102C30.3666 44.2102 31.1201 44.1861 33.6388 44.0699C35.9686 43.9626 37.2323 43.5703 38.0748 43.2393C39.1887 42.801 39.9856 42.2816 40.8215 41.4378C41.6141 40.6598 42.2242 39.7108 42.6064 38.6654C42.9342 37.8151 43.3229 36.5395 43.4293 34.1879C43.5444 31.6457 43.5683 30.883 43.5683 24.4462C43.5683 18.0094 43.5444 17.2467 43.4293 14.7044C43.3229 12.3528 42.9342 11.0773 42.6064 10.227C42.1721 9.10266 41.6575 8.29834 40.8215 7.45457C40.0506 6.65478 39.1121 6.03924 38.0748 5.65305C37.2323 5.32212 35.9686 4.92982 33.6388 4.82243ZM20.9365 31.878C22.6403 32.5938 24.5374 32.6904 26.3039 32.1513C28.0704 31.6122 29.5966 30.4708 30.622 28.922C31.6473 27.3732 32.1081 25.5132 31.9257 23.6596C31.7433 21.806 30.929 20.0738 29.6218 18.7589C28.7886 17.9184 27.781 17.2748 26.6717 16.8745C25.5624 16.4741 24.379 16.327 23.2066 16.4437C22.0343 16.5605 20.9021 16.9381 19.8917 17.5494C18.8813 18.1608 18.0177 18.9907 17.3632 19.9793C16.7087 20.968 16.2794 22.0908 16.1065 23.267C15.9335 24.4432 16.021 25.6435 16.3627 26.7814C16.7045 27.9193 17.2919 28.9666 18.0828 29.8479C18.8737 30.7292 19.8483 31.4225 20.9365 31.878ZM15.3063 15.6841C16.4463 14.5334 17.7997 13.6207 19.2891 12.998C20.7786 12.3752 22.375 12.0547 23.9872 12.0547C25.5994 12.0547 27.1959 12.3752 28.6853 12.998C30.1748 13.6207 31.5282 14.5334 32.6682 15.6841C33.8082 16.8347 34.7125 18.2008 35.3295 19.7042C35.9464 21.2076 36.264 22.8189 36.264 24.4462C36.264 26.0735 35.9464 27.6848 35.3295 29.1882C34.7125 30.6916 33.8082 32.0576 32.6682 33.2083C30.3659 35.5321 27.2432 36.8377 23.9872 36.8377C20.7313 36.8377 17.6086 35.5321 15.3063 33.2083C13.004 30.8844 11.7105 27.7326 11.7105 24.4462C11.7105 21.1598 13.004 18.0079 15.3063 15.6841ZM38.9868 13.9001C39.2693 13.6311 39.4954 13.3077 39.6519 12.9489C39.8083 12.5901 39.8918 12.2033 39.8975 11.8114C39.9031 11.4194 39.8308 11.0303 39.6848 10.6671C39.5388 10.3038 39.3221 9.97386 39.0475 9.69668C38.7729 9.4195 38.4459 9.20075 38.0861 9.05339C37.7262 8.90603 37.3407 8.83304 36.9524 8.83875C36.5641 8.84447 36.1808 8.92877 35.8254 9.08666C35.4699 9.24455 35.1494 9.47282 34.883 9.75796C34.3647 10.3125 34.0809 11.0491 34.0919 11.8114C34.103 12.5736 34.4079 13.3015 34.9419 13.8406C35.476 14.3797 36.1972 14.6874 36.9524 14.6985C37.7076 14.7096 38.4374 14.4232 38.9868 13.9001Z" fill="#0085FF"/>
</svg>
