<svg width="48" height="49" viewBox="0 0 48 49" fill="none" xmlns="http://www.w3.org/2000/svg">
<path fill-rule="evenodd" clip-rule="evenodd" d="M24 0C10.74 0 0 10.9637 0 24.5C0 35.3413 6.87 44.4981 16.41 47.7444C17.61 47.9588 18.06 47.2238 18.06 46.5806C18.06 45.9988 18.03 44.0694 18.03 42.0175C12 43.1506 10.44 40.5169 9.96 39.1388C9.69 38.4344 8.52 36.26 7.5 35.6781C6.66 35.2188 5.46 34.0856 7.47 34.055C9.36 34.0244 10.71 35.8312 11.16 36.5662C13.32 40.2719 16.77 39.2306 18.15 38.5875C18.36 36.995 18.99 35.9231 19.68 35.3106C14.34 34.6981 8.76 32.585 8.76 23.2138C8.76 20.5494 9.69 18.3444 11.22 16.6294C10.98 16.0169 10.14 13.5056 11.46 10.1369C11.46 10.1369 13.47 9.49375 18.06 12.6481C19.98 12.0969 22.02 11.8212 24.06 11.8212C26.1 11.8212 28.14 12.0969 30.06 12.6481C34.65 9.46313 36.66 10.1369 36.66 10.1369C37.98 13.5056 37.14 16.0169 36.9 16.6294C38.43 18.3444 39.36 20.5188 39.36 23.2138C39.36 32.6156 33.75 34.6981 28.41 35.3106C29.28 36.0763 30.03 37.5462 30.03 39.8431C30.03 43.12 30 45.7538 30 46.5806C30 47.2238 30.45 47.9894 31.65 47.7444C36.4144 46.1023 40.5544 42.9764 43.4873 38.8067C46.4203 34.637 47.9986 29.6333 48 24.5C48 10.9637 37.26 0 24 0Z" fill="#0085FF"/>
</svg>
