<svg width="48" height="49" viewBox="0 0 48 49" fill="none" xmlns="http://www.w3.org/2000/svg">
<path fill-rule="evenodd" clip-rule="evenodd" d="M0.0928961 4.36658C0.0928961 3.29824 0.513364 2.27365 1.2618 1.51822C2.01024 0.762782 3.02534 0.338384 4.08379 0.338384H43.8668C44.3914 0.33752 44.9109 0.44109 45.3957 0.643165C45.8806 0.845241 46.3212 1.14185 46.6923 1.51602C47.0634 1.89019 47.3577 2.33456 47.5584 2.8237C47.7592 3.31284 47.8624 3.83714 47.8621 4.36658V44.5214C47.8626 45.051 47.7598 45.5754 47.5593 46.0648C47.3589 46.5542 47.0648 46.9988 46.6939 47.3734C46.3231 47.7479 45.8826 48.045 45.3979 48.2476C44.9132 48.4502 44.3936 48.5543 43.869 48.554H4.08379C3.55952 48.554 3.04038 48.4497 2.55604 48.2472C2.0717 48.0446 1.63165 47.7477 1.26103 47.3734C0.890417 46.9991 0.596495 46.5548 0.396062 46.0658C0.195628 45.5768 0.0926109 45.0528 0.0928961 44.5236V4.36658ZM19.0008 18.7217H25.4692V22.0003C26.4029 20.1156 28.7913 18.4192 32.3805 18.4192C39.2614 18.4192 40.8921 22.1735 40.8921 29.0617V41.8213H33.9287V30.6309C33.9287 26.7079 32.995 24.4944 30.6239 24.4944C27.3344 24.4944 25.9664 26.8811 25.9664 30.6309V41.8213H19.0008V18.7217ZM7.05851 41.5211H14.0241V18.4192H7.05851V41.5189V41.5211ZM15.0208 10.8845C15.0339 11.4864 14.9278 12.085 14.7086 12.645C14.4895 13.205 14.1617 13.7152 13.7445 14.1457C13.3274 14.5761 12.8292 14.9181 12.2794 15.1515C11.7295 15.385 11.139 15.5053 10.5424 15.5053C9.94585 15.5053 9.35531 15.385 8.80544 15.1515C8.25557 14.9181 7.75743 14.5761 7.34028 14.1457C6.92312 13.7152 6.59535 13.205 6.37619 12.645C6.15704 12.085 6.05091 11.4864 6.06404 10.8845C6.08982 9.70285 6.57297 8.57841 7.41002 7.75194C8.24706 6.92547 9.37146 6.46268 10.5424 6.46268C11.7133 6.46268 12.8377 6.92547 13.6748 7.75194C14.5118 8.57841 14.995 9.70285 15.0208 10.8845Z" fill="#0085FF"/>
</svg>
