<svg width="48" height="49" viewBox="0 0 48 49" fill="none" xmlns="http://www.w3.org/2000/svg">
<path d="M18.948 21.4649C19.557 21.0147 19.848 20.2675 19.848 19.2354C19.8695 18.7493 19.7694 18.2655 19.557 17.8297C19.3667 17.4749 19.0844 17.1804 18.741 16.9784C18.384 16.759 17.9887 16.6124 17.577 16.5466C17.129 16.4606 16.6739 16.4186 16.218 16.421H11.277V22.1448H16.62C17.559 22.154 18.336 21.9243 18.945 21.4649H18.948Z" fill="#0085FF"/>
<path d="M19.782 26.6349C19.089 26.099 18.171 25.8325 17.025 25.8325H11.277V32.5792H16.911C17.436 32.5792 17.925 32.5302 18.393 32.4261C18.861 32.322 19.284 32.1566 19.641 31.9085C19.998 31.6696 20.289 31.345 20.502 30.9316C20.715 30.5181 20.82 29.9853 20.82 29.3421C20.82 28.0804 20.472 27.18 19.779 26.6349H19.782Z" fill="#0085FF"/>
<path d="M43.5 0H4.5C2.025 0 0 2.06719 0 4.59375V44.4062C0 46.9328 2.025 49 4.5 49H43.5C45.975 49 48 46.9328 48 44.4062V4.59375C48 2.06719 45.975 0 43.5 0ZM31.464 12.8901H41.187V15.3125H31.464V12.8901ZM25.389 32.8453C24.9383 33.7274 24.2897 34.4882 23.496 35.0656C22.6686 35.6527 21.7451 36.0841 20.769 36.3396C19.7472 36.6164 18.6941 36.7544 17.637 36.75H6.003V12.2592H17.31C18.453 12.2592 19.494 12.3633 20.442 12.5654C21.381 12.7676 22.185 13.1106 22.86 13.5791C23.526 14.0477 24.051 14.6694 24.426 15.4442C24.792 16.2098 24.978 17.1776 24.978 18.3168C24.978 19.551 24.705 20.5739 24.153 21.3977C23.601 22.2215 22.794 22.8891 21.705 23.4159C23.187 23.8477 24.273 24.6133 24.996 25.6944C25.728 26.7846 26.085 28.0954 26.085 29.6266C26.094 30.8792 25.86 31.9511 25.392 32.8423L25.389 32.8453ZM44.973 29.057H32.439C32.439 30.4535 32.907 31.7857 33.621 32.5023C34.335 33.2098 35.364 33.5742 36.705 33.5742C37.671 33.5742 38.496 33.3261 39.198 32.8269C39.891 32.3308 40.314 31.8041 40.473 31.2589H44.673C43.998 33.3935 42.975 34.9156 41.58 35.8343C40.203 36.7531 38.514 37.2124 36.555 37.2124C35.187 37.2124 33.957 36.9827 32.853 36.5418C31.7949 36.1214 30.8388 35.4715 30.051 34.6369C29.2756 33.7807 28.6758 32.7749 28.287 31.6785C27.8611 30.4664 27.6489 29.187 27.66 27.8994C27.66 26.5702 27.876 25.333 28.299 24.1846C28.6992 23.0805 29.3166 22.0718 30.1132 21.2207C30.9099 20.3695 31.8688 19.6939 32.931 19.2356C34.076 18.7456 35.3076 18.5016 36.549 18.5189C38.022 18.5189 39.306 18.8068 40.41 19.3979C41.508 19.9828 42.408 20.7668 43.119 21.7529C43.83 22.7391 44.328 23.8599 44.646 25.1217C44.955 26.3651 45.057 27.6758 44.973 29.0539V29.057Z" fill="#0085FF"/>
<path d="M36.4019 22.194C35.6429 22.194 35.0039 22.3287 34.5089 22.5952C34.0139 22.8616 33.6089 23.1893 33.2999 23.5721C33.0049 23.9404 32.7874 24.3668 32.6609 24.8247C32.5462 25.2041 32.4737 25.5955 32.4449 25.9915H40.2089C40.0979 24.7481 39.6749 23.8294 39.1109 23.1862C38.5289 22.5339 37.5749 22.1909 36.4019 22.1909V22.194Z" fill="#0085FF"/>
</svg>
