<svg width="390" height="424" viewBox="0 0 390 424" fill="none" xmlns="http://www.w3.org/2000/svg">
<path d="M93.6962 319.329V326.675L192.075 383.22L251.737 349.052V343.331L152.49 286.336L93.6962 319.329Z" fill="#050815"/>
<path d="M92.279 319.177L191.741 377.013L253.571 339.988V332.838C253.571 332.838 105.895 312.506 97.7394 311.44C89.5765 310.374 92.279 319.177 92.279 319.177Z" fill="#131D3F"/>
<path d="M191.741 371.712V376.469L253.571 339.488V332.338L191.741 371.712Z" fill="#0E152A"/>
<path d="M91.1952 314.058L192.721 372.931L256.579 334.485L155.067 276.482L91.1952 314.058Z" fill="#212B4D"/>
<path d="M225.248 331.657C224.539 332.077 224.56 332.73 225.289 333.107L231.361 337.066C232.091 337.443 233.008 337.617 233.932 336.921L238.621 333.955C239.309 333.411 239.309 332.94 238.621 332.411L232.188 328.93C231.458 328.56 230.277 328.604 229.569 329.017L225.248 331.657ZM146.21 286.445C145.48 286.829 145.467 287.482 146.175 287.895L167.92 300.505C168.621 300.926 169.532 301.151 170.483 300.498L174.665 297.67C175.367 297.17 175.555 296.684 174.895 296.111L153.192 283.559C152.483 283.153 151.302 283.131 150.573 283.508L146.21 286.445ZM125.452 300.375C124.722 300.752 124.708 301.404 125.417 301.825L135.268 307.757C135.977 308.177 136.88 308.395 137.839 307.749L142.931 304.254C143.639 303.754 143.827 303.268 143.167 302.702L133.385 296.829C132.67 296.423 131.496 296.401 130.766 296.778L125.452 300.375ZM210.811 336.428C210.082 336.805 210.068 337.458 210.777 337.878L220.551 343.541C221.26 343.962 222.163 344.179 223.122 343.534L228.304 340.307C229.013 339.807 229.194 339.321 228.541 338.756L218.432 332.904C217.717 332.498 216.543 332.476 215.813 332.853L210.811 336.428ZM134.858 318.191C134.129 318.568 134.115 319.221 134.824 319.641L175.589 343.904C176.291 344.325 177.201 344.549 178.153 343.904L183.252 340.402C183.961 339.901 184.141 339.415 183.488 338.85L142.535 314.863C141.819 314.457 140.638 314.435 139.916 314.812L134.858 318.191ZM215.64 326.653C214.924 327.059 214.931 327.712 215.654 328.104L221.177 331.381C221.899 331.773 222.816 331.954 223.747 331.28L227.999 328.212C228.68 327.683 228.853 327.197 228.179 326.646L222.656 323.368C221.927 322.991 220.746 323.013 220.037 323.419L215.64 326.653ZM205.566 320.773C204.851 321.186 204.858 321.838 205.58 322.223L211.659 325.66C212.382 326.044 213.299 326.24 214.229 325.558L218.148 322.593C218.842 322.063 219.009 321.57 218.335 321.034L212.229 317.691C211.506 317.314 210.325 317.335 209.61 317.734L205.566 320.773ZM199.835 330.54C199.106 330.917 199.092 331.57 199.8 331.99L206.393 335.841C207.102 336.261 208.012 336.479 208.964 335.833L213.889 332.389C214.598 331.881 214.778 331.403 214.125 330.83L207.567 327.096C206.859 326.69 205.678 326.668 204.948 327.045L199.835 330.54ZM190.039 325.094C189.31 325.479 189.296 326.131 190.005 326.552L196.334 330.054C197.035 330.467 197.945 330.692 198.897 330.047L203.996 326.552C204.698 326.044 204.886 325.566 204.233 324.993L197.674 321.258C196.966 320.852 195.785 320.831 195.055 321.208L190.039 325.094ZM178.82 318.343C178.09 318.72 178.076 319.373 178.785 319.794L185.114 323.659C185.816 324.072 186.726 324.297 187.677 323.651L192.777 320.156C193.478 319.649 193.666 319.17 193.013 318.597L186.455 314.863C185.746 314.457 184.565 314.435 183.836 314.812L178.82 318.343ZM167.579 311.868C166.85 312.245 166.836 312.905 167.545 313.318L174.075 317.161C174.777 317.582 175.687 317.807 176.638 317.161L181.522 313.703C182.224 313.195 182.412 312.716 181.758 312.144L175.2 308.409C174.492 308.003 173.311 307.981 172.581 308.358L167.579 311.868ZM156.464 305.458C155.734 305.842 155.721 306.495 156.429 306.915L162.939 310.766C163.64 311.179 164.55 311.404 165.502 310.759L170.601 307.263C171.31 306.756 171.491 306.277 170.838 305.704L164.279 301.97C163.571 301.564 162.39 301.542 161.66 301.919L156.464 305.458ZM146.391 299.584C145.661 299.969 145.647 300.621 146.356 301.035L152.754 304.907C153.463 305.32 154.366 305.545 155.325 304.9L160.417 301.404C161.125 300.897 161.313 300.418 160.653 299.845L154.102 296.111C153.386 295.705 152.205 295.683 151.483 296.06L146.391 299.584ZM195.257 315.008C194.527 315.392 194.513 316.045 195.222 316.465L201.843 320.163C202.551 320.577 203.454 320.802 204.413 320.156L208.436 316.987C209.144 316.487 209.332 316.001 208.672 315.436L202.357 312.02C201.641 311.614 200.467 311.592 199.738 311.97L195.257 315.008ZM183.363 308.242C182.634 308.619 182.62 309.279 183.329 309.693L190.033 313.514C190.734 313.935 191.644 314.152 192.596 313.507L196.764 310.664C197.473 310.157 197.654 309.678 197.001 309.105L190.449 305.371C189.734 304.965 188.553 304.943 187.83 305.32L183.363 308.242ZM138.95 308.155C138.221 308.54 138.207 309.192 138.915 309.606L145.494 313.463C146.203 313.884 147.106 314.101 148.065 313.456L153.428 309.714C154.137 309.207 154.324 308.728 153.664 308.155L147.113 304.421C146.397 304.015 145.223 303.993 144.494 304.37L138.95 308.155ZM150.177 314.718C149.447 315.095 149.433 315.747 150.142 316.168L156.693 319.873C157.402 320.287 158.312 320.511 159.264 319.866L164.405 316.364C165.113 315.856 165.301 315.378 164.641 314.805L158.09 311.07C157.374 310.664 156.2 310.643 155.47 311.02L150.177 314.718ZM171.261 326.885C170.532 327.27 170.518 327.922 171.227 328.343L177.75 332.186C178.459 332.607 179.369 332.831 180.32 332.179L185.989 328.705C186.691 328.198 186.879 327.719 186.226 327.146L179.667 323.412C178.959 323.006 177.778 322.984 177.048 323.361L171.261 326.885ZM160.987 321.012C160.257 321.389 160.243 322.041 160.952 322.462L167.559 326.291C168.267 326.704 169.177 326.929 170.129 326.283L175.228 322.788C175.93 322.281 176.117 321.802 175.464 321.229L168.906 317.495C168.198 317.089 167.017 317.067 166.287 317.444L160.987 321.012ZM181.508 332.744C180.779 333.121 180.765 333.774 181.474 334.195L188.268 338.219C188.97 338.632 189.88 338.857 190.831 338.212L195.882 334.702C196.584 334.195 196.771 333.716 196.118 333.143L189.56 329.409C188.852 329.003 187.671 328.981 186.941 329.358L181.508 332.744ZM191.825 338.603C191.095 338.98 191.082 339.633 191.79 340.054L198.154 344.071C198.862 344.484 199.765 344.709 200.717 344.063L205.907 340.525C206.615 340.017 206.803 339.539 206.143 338.966L199.592 335.231C198.876 334.825 197.702 334.804 196.973 335.181L191.825 338.603ZM202.524 345.071C201.794 345.448 201.78 346.101 202.489 346.522L209.123 350.379C209.832 350.8 210.735 351.017 211.694 350.372L216.48 346.884C217.189 346.377 217.377 345.898 216.717 345.325L210.165 341.591C209.45 341.185 208.276 341.163 207.546 341.54L202.524 345.071ZM191.596 351.423C190.866 351.801 190.852 352.453 191.561 352.874L197.925 356.891C198.633 357.304 199.536 357.529 200.488 356.884L205.587 353.389C206.296 352.881 206.476 352.402 205.823 351.83L199.272 348.095C198.557 347.689 197.376 347.667 196.653 348.044L191.596 351.423ZM180.619 344.781C179.89 345.158 179.876 345.811 180.584 346.232L186.948 350.249C187.657 350.662 188.56 350.887 189.512 350.242L194.611 346.746C195.319 346.239 195.5 345.76 194.847 345.187L188.296 341.453C187.58 341.047 186.399 341.025 185.677 341.402L180.619 344.781ZM123.882 311.549C123.152 311.926 123.138 312.579 123.847 312.999L130.211 317.016C130.919 317.43 131.822 317.654 132.774 317.009L137.873 313.514C138.582 313.006 138.763 312.528 138.11 311.955L131.558 308.221C130.843 307.815 129.662 307.793 128.939 308.17L123.882 311.549ZM114.489 306.285C113.76 306.662 113.746 307.314 114.454 307.735L120.137 311.317C120.846 311.73 121.756 311.955 122.708 311.31L127.807 307.815C128.509 307.307 128.696 306.828 128.043 306.256L122.166 302.956C121.45 302.55 120.269 302.528 119.547 302.905L114.489 306.285ZM135.824 293.551C135.094 293.936 135.081 294.588 135.789 295.009L142.333 298.859C143.042 299.273 143.945 299.497 144.904 298.852L149.996 295.357C150.705 294.849 150.892 294.371 150.232 293.798L143.681 290.064C142.966 289.657 141.792 289.636 141.062 290.013L135.824 293.551ZM172.38 301.731C171.65 302.108 171.636 302.76 172.345 303.181L178.931 306.923C179.64 307.336 180.543 307.561 181.501 306.915L185.614 304.022C186.316 303.515 186.503 303.036 185.85 302.463L179.292 298.729C178.584 298.323 177.403 298.301 176.673 298.678L172.38 301.731Z" fill="#161B30"/>
<path d="M225.248 330.707C224.539 331.127 224.56 331.78 225.289 332.157L231.361 336.116C232.091 336.493 233.008 336.667 233.932 335.971L238.621 333.005C239.309 332.462 239.309 331.99 238.621 331.461L232.188 327.98C231.458 327.611 230.277 327.654 229.569 328.067L225.248 330.707ZM146.21 285.495C145.48 285.88 145.467 286.532 146.175 286.946L167.92 299.555C168.621 299.976 169.532 300.201 170.483 299.548L174.665 296.72C175.367 296.22 175.555 295.734 174.895 295.161L153.192 282.609C152.483 282.203 151.302 282.182 150.573 282.559L146.21 285.495ZM125.452 299.425C124.722 299.802 124.708 300.455 125.417 300.875L135.268 306.807C135.977 307.227 136.88 307.445 137.839 306.799L142.931 303.304C143.639 302.804 143.827 302.318 143.167 301.753L133.385 295.879C132.67 295.473 131.496 295.451 130.766 295.828L125.452 299.425ZM210.811 335.478C210.082 335.855 210.068 336.508 210.777 336.928L220.551 342.592C221.26 343.012 222.163 343.23 223.122 342.584L228.304 339.358C229.013 338.857 229.194 338.371 228.541 337.806L218.432 331.954C217.717 331.548 216.543 331.526 215.813 331.903L210.811 335.478ZM134.858 317.241C134.129 317.618 134.115 318.271 134.824 318.692L175.589 342.954C176.291 343.375 177.201 343.6 178.153 342.954L183.252 339.452C183.961 338.951 184.141 338.466 183.488 337.9L142.535 313.913C141.819 313.507 140.638 313.485 139.916 313.862L134.858 317.241ZM215.64 325.703C214.924 326.11 214.931 326.762 215.654 327.154L221.177 330.431C221.899 330.823 222.816 331.004 223.747 330.33L227.999 327.262C228.68 326.733 228.853 326.247 228.179 325.696L222.656 322.419C221.927 322.042 220.746 322.063 220.037 322.469L215.64 325.703ZM205.566 319.823C204.851 320.236 204.858 320.889 205.58 321.273L211.659 324.71C212.382 325.094 213.299 325.29 214.229 324.609L218.148 321.643C218.842 321.113 219.009 320.62 218.335 320.084L212.229 316.741C211.506 316.364 210.325 316.386 209.61 316.784L205.566 319.823ZM199.835 329.59C199.106 329.967 199.092 330.62 199.8 331.04L206.393 334.891C207.102 335.311 208.012 335.529 208.964 334.884L213.889 331.439C214.598 330.932 214.778 330.453 214.125 329.88L207.567 326.146C206.859 325.74 205.678 325.718 204.948 326.095L199.835 329.59ZM190.039 324.144C189.31 324.529 189.296 325.181 190.005 325.602L196.334 329.104C197.035 329.518 197.945 329.742 198.897 329.097L203.996 325.602C204.698 325.094 204.886 324.616 204.233 324.043L197.674 320.309C196.966 319.902 195.785 319.881 195.055 320.258L190.039 324.144ZM178.82 317.394C178.09 317.771 178.076 318.423 178.785 318.844L185.114 322.709C185.816 323.122 186.726 323.347 187.677 322.701L192.777 319.206C193.478 318.699 193.666 318.22 193.013 317.647L186.455 313.913C185.746 313.507 184.565 313.485 183.836 313.862L178.82 317.394ZM167.579 310.918C166.85 311.295 166.836 311.955 167.545 312.368L174.075 316.212C174.777 316.632 175.687 316.857 176.638 316.212L181.522 312.753C182.224 312.245 182.412 311.767 181.758 311.194L175.2 307.459C174.492 307.053 173.311 307.032 172.581 307.409L167.579 310.918ZM156.464 304.508C155.734 304.892 155.721 305.545 156.429 305.966L162.939 309.816C163.64 310.229 164.55 310.454 165.502 309.809L170.601 306.314C171.31 305.806 171.491 305.327 170.838 304.755L164.279 301.02C163.571 300.614 162.39 300.592 161.66 300.969L156.464 304.508ZM146.391 298.635C145.661 299.019 145.647 299.672 146.356 300.085L152.754 303.957C153.463 304.37 154.366 304.595 155.325 303.95L160.417 300.455C161.125 299.947 161.313 299.468 160.653 298.896L154.102 295.161C153.386 294.755 152.205 294.733 151.483 295.11L146.391 298.635ZM195.257 314.058C194.527 314.442 194.513 315.095 195.222 315.515L201.843 319.214C202.551 319.627 203.454 319.852 204.413 319.206L208.436 316.038C209.144 315.537 209.332 315.051 208.672 314.486L202.357 311.07C201.641 310.664 200.467 310.643 199.738 311.02L195.257 314.058ZM183.363 307.293C182.634 307.67 182.62 308.329 183.329 308.743L190.033 312.564C190.734 312.985 191.644 313.202 192.596 312.557L196.764 309.714C197.473 309.207 197.654 308.728 197.001 308.155L190.449 304.421C189.734 304.015 188.553 303.993 187.83 304.37L183.363 307.293ZM138.95 307.206C138.221 307.59 138.207 308.242 138.915 308.656L145.494 312.513C146.203 312.934 147.106 313.152 148.065 312.506L153.428 308.765C154.137 308.257 154.324 307.778 153.664 307.206L147.113 303.471C146.397 303.065 145.223 303.043 144.494 303.42L138.95 307.206ZM150.177 313.768C149.447 314.145 149.433 314.798 150.142 315.218L156.693 318.924C157.402 319.337 158.312 319.562 159.264 318.916L164.405 315.414C165.113 314.906 165.301 314.428 164.641 313.855L158.09 310.121C157.374 309.714 156.2 309.693 155.47 310.07L150.177 313.768ZM171.261 325.935C170.532 326.32 170.518 326.972 171.227 327.393L177.75 331.236C178.459 331.657 179.369 331.882 180.32 331.229L185.989 327.756C186.691 327.248 186.879 326.769 186.226 326.197L179.667 322.462C178.959 322.056 177.778 322.034 177.048 322.411L171.261 325.935ZM160.987 320.062C160.257 320.439 160.243 321.092 160.952 321.512L167.559 325.341C168.267 325.754 169.177 325.979 170.129 325.334L175.228 321.839C175.93 321.331 176.117 320.852 175.464 320.28L168.906 316.545C168.198 316.139 167.017 316.117 166.287 316.494L160.987 320.062ZM181.508 331.794C180.779 332.172 180.765 332.824 181.474 333.245L188.268 337.269C188.97 337.682 189.88 337.907 190.831 337.262L195.882 333.752C196.584 333.245 196.771 332.766 196.118 332.193L189.56 328.459C188.852 328.053 187.671 328.031 186.941 328.408L181.508 331.794ZM191.825 337.653C191.095 338.031 191.082 338.683 191.79 339.104L198.154 343.121C198.862 343.534 199.765 343.759 200.717 343.114L205.907 339.575C206.615 339.067 206.803 338.589 206.143 338.016L199.592 334.282C198.876 333.876 197.702 333.854 196.973 334.231L191.825 337.653ZM202.524 344.122C201.794 344.499 201.78 345.151 202.489 345.572L209.123 349.429C209.832 349.85 210.735 350.068 211.694 349.422L216.48 345.934C217.189 345.427 217.377 344.948 216.717 344.375L210.165 340.641C209.45 340.235 208.276 340.213 207.546 340.59L202.524 344.122ZM191.596 350.474C190.866 350.851 190.852 351.503 191.561 351.924L197.925 355.941C198.633 356.354 199.536 356.579 200.488 355.934L205.587 352.439C206.296 351.931 206.476 351.453 205.823 350.88L199.272 347.145C198.557 346.739 197.376 346.718 196.653 347.095L191.596 350.474ZM180.619 343.832C179.89 344.209 179.876 344.861 180.584 345.282L186.948 349.299C187.657 349.712 188.56 349.937 189.512 349.292L194.611 345.797C195.319 345.289 195.5 344.81 194.847 344.238L188.296 340.503C187.58 340.097 186.399 340.075 185.677 340.452L180.619 343.832ZM123.882 310.599C123.152 310.976 123.138 311.629 123.847 312.049L130.211 316.067C130.919 316.48 131.822 316.705 132.774 316.059L137.873 312.564C138.582 312.057 138.763 311.578 138.11 311.005L131.558 307.271C130.843 306.865 129.662 306.843 128.939 307.22L123.882 310.599ZM114.489 305.335C113.76 305.712 113.746 306.364 114.454 306.785L120.137 310.367C120.846 310.78 121.756 311.005 122.708 310.36L127.807 306.865C128.509 306.357 128.696 305.879 128.043 305.306L122.166 302.006C121.45 301.6 120.269 301.579 119.547 301.956L114.489 305.335ZM135.824 292.602C135.094 292.986 135.081 293.638 135.789 294.059L142.333 297.909C143.042 298.323 143.945 298.548 144.904 297.902L149.996 294.407C150.705 293.9 150.892 293.421 150.232 292.848L143.681 289.114C142.966 288.708 141.792 288.686 141.062 289.063L135.824 292.602ZM172.38 300.781C171.65 301.158 171.636 301.811 172.345 302.231L178.931 305.973C179.64 306.386 180.543 306.611 181.501 305.966L185.614 303.072C186.316 302.565 186.503 302.086 185.85 301.513L179.292 297.779C178.584 297.373 177.403 297.351 176.673 297.728L172.38 300.781Z" fill="#2D3A64"/>
<path d="M2.46065 276.303C0.2584 274.969 0.265347 272.808 2.48149 271.489L84.5274 222.666C86.7365 221.354 90.3491 221.361 92.5583 222.695L138.409 250.402C140.619 251.729 140.612 253.897 138.396 255.217L56.3497 304.039C54.1336 305.352 50.521 305.345 48.3188 304.01L2.46065 276.303Z" fill="#050915"/>
<path d="M0.0013504 262.265C0.0013504 261.315 0.390391 260.64 0.925321 260.365C2.46064 259.321 5.53823 257.435 7.77521 256.188L86.8268 211.905C87.3131 211.629 87.9106 211.637 88.39 211.927L137.215 238.524C137.77 238.807 139.069 239.474 139.472 240.953C139.917 242.599 139.973 244.724 137.743 245.899L55.0506 294.794C52.8275 296.114 50.0903 296.099 47.8742 294.772L0.814167 266.543C0.307025 266.246 0.0013504 265.695 0.0013504 265.1V262.265Z" fill="#0E152A"/>
<path d="M0.0013504 261.968C0.0013504 261.011 0.390391 260.329 0.925321 260.054C2.44675 259.002 5.51044 257.102 7.74048 255.841C7.74048 255.841 53.4875 291.343 51.2644 292.532C51.2644 292.532 51.2644 294.765 51.2644 295.773C50.0139 295.78 48.7634 295.447 47.6449 294.765L0.80722 266.29C0.307025 265.985 0.0013504 265.434 0.0013504 264.832V261.968Z" fill="#131D3F"/>
<path d="M1.64128 263.324C-0.554019 262.019 -0.547072 259.887 1.66212 258.589L83.3815 210.564C85.5837 209.266 89.1823 209.28 91.3776 210.593L137.048 237.843C139.243 239.155 139.237 241.287 137.034 242.578L55.315 290.61C53.1127 291.901 49.5141 291.894 47.3188 290.581L1.64128 263.324Z" fill="#212B4D"/>
<path d="M9.57452 255.007L77.0174 215.915L127.718 246.494L61.6712 285.273L9.57452 255.007Z" fill="#0085FF"/>
<path d="M9.57452 255.007L77.0174 215.915L127.718 246.494L61.6712 285.273L9.57452 255.007Z" stroke="#1C243F" stroke-width="1.30815"/>
<path d="M33.9034 275.281C33.9034 276.731 32.5279 277.913 30.8259 277.913C29.1238 277.913 27.7413 276.731 27.7413 275.281C27.7413 273.831 29.1238 272.656 30.8259 272.656C32.5279 272.656 33.9034 273.831 33.9034 275.281Z" fill="#38487C"/>
<path d="M101.888 224.472L110.363 229.511C110.475 229.577 110.607 229.584 110.725 229.526L111.774 229.011C112.038 228.873 112.052 228.503 111.795 228.351L103.326 223.311C103.215 223.246 103.076 223.246 102.965 223.297L101.916 223.819C101.652 223.95 101.638 224.327 101.888 224.472Z" fill="#38487C"/>
<path d="M197.057 268.257C197.057 268.257 195.723 269.019 195.723 269.671C195.723 270.331 196.841 272.035 196.841 272.035L251.182 303.926L279.464 288.119L224.449 253.465" fill="#0E152A"/>
<path d="M197.057 266.35C197.057 266.35 195.723 267.112 195.723 267.764C195.723 268.424 197.057 269.062 197.057 269.062L251.397 300.953L279.679 285.146L224.449 251.558" fill="#212B4D"/>
<path d="M156.186 211.125L140.09 19.736L147.093 15.9146L357.758 138.78V326.529L350.533 331.677" fill="#0E152A"/>
<path d="M139.965 206.818V16.7484L352.624 141.361L351.672 332.148L139.965 206.818Z" fill="#212B4D"/>
<path d="M147.586 197.681L146.127 30.8666L343.37 147.358V312.512L147.586 197.681Z" fill="#38487C"/>
<path d="M147.586 197.681L146.127 30.8666L343.37 147.358V312.512L147.586 197.681Z" stroke="#1C243F" stroke-width="1.30815" stroke-linecap="round" stroke-linejoin="round"/>
<path d="M330.29 392.322C328.463 392.576 327.199 394.91 326.734 398.703C323.906 404.54 318.182 403.851 318.182 403.851V409.507C318.182 409.507 323.586 409.935 327.199 407.433C330.811 404.932 332.319 401.081 332.778 398.703C333.236 396.332 332.659 392.322 330.29 392.322ZM268.523 409.101C268.523 417.23 280.208 423.821 294.617 423.821C309.032 423.821 320.717 417.23 320.717 409.101C320.717 400.965 309.032 394.164 294.617 394.164C280.208 394.164 268.523 400.965 268.523 409.355" fill="#050815"/>
<path d="M268.523 399.479C268.523 407.651 280.264 414.271 294.742 414.271C309.22 414.271 320.96 407.651 320.96 399.479V349.119C320.96 340.939 309.22 334.102 294.742 334.102C280.264 334.102 268.523 340.939 268.523 349.373V399.82" fill="#202949"/>
<path d="M299.48 414.271C309.678 413.365 320.96 407.897 320.96 399.725V349.373C320.689 351.287 298.208 362.382 297.958 365.195C303.169 365.398 315.41 363.505 315.41 371.206C315.41 380.053 315.41 390.879 315.41 399.725C315.41 407.006 309.609 409.703 299.48 414.271Z" fill="#19213A"/>
<path d="M294.742 334.102C309.212 334.102 320.96 341.159 320.96 349.851C320.96 358.544 309.212 365.601 294.742 365.601C280.272 365.601 268.523 358.544 268.523 349.851C268.523 341.159 280.272 334.102 294.742 334.102Z" fill="#2B3862"/>
<path d="M294.738 334.102C307.684 334.102 318.195 340.517 318.195 348.419C318.195 356.321 307.684 362.737 294.738 362.737C281.792 362.737 271.281 356.321 271.281 348.419C271.281 340.517 281.792 334.102 294.738 334.102Z" fill="#2B3862"/>
<g opacity="0.52">
<path d="M294.916 345.936C297.291 341.498 295.527 335.109 294.916 334.102C281.862 334.102 271.281 340.635 271.281 348.684C271.281 351.577 272.768 355.652 279.611 359.872C285.071 355.268 292.54 350.381 294.916 345.936Z" fill="#253054"/>
</g>
<path d="M294.582 362.737C305.6 362.737 315.444 356.791 315.444 354.623C315.444 352.455 305.92 346.509 294.582 346.509C283.237 346.509 274.046 352.317 274.046 354.623C274.046 356.921 283.557 362.737 294.582 362.737Z" fill="#0085FF"/>
<path d="M320.96 361.787C320.96 361.787 328.053 361.468 329.596 367.863C330.353 372.395 330.791 383.185 329.116 387.108C326.205 392.996 320.96 392.257 320.96 392.257V397.97C320.96 397.97 325.872 398.442 329.596 395.918C333.312 393.388 334.869 389.501 335.341 387.108C335.813 384.715 335.772 371.119 335.341 367.61C334.91 364.1 333.889 361.555 330.339 358.814C326.796 356.066 320.96 356.051 320.96 356.051V361.787Z" fill="#2B3863"/>
<path d="M329.533 368.951C330.277 373.454 330.2 383.975 328.568 387.869C325.726 393.714 320.96 392.568 320.96 392.568V394.845C320.96 394.845 323.656 395.962 327.289 393.453C330.923 390.944 330.867 389.436 331.326 387.057C331.784 384.686 332.201 371.061 331.895 368.951C331.59 366.841 328.033 362.606 329.533 368.951Z" fill="#2B3862"/>
<path d="M320.043 363.803C320.043 363.803 328.206 363.36 329.721 369.756C330.457 374.288 330.888 385.07 329.248 389.001C326.393 394.881 320.613 394.185 320.613 394.185V399.899C320.613 399.899 326.074 400.327 329.721 397.804C333.368 395.28 334.889 391.393 335.348 389.001C335.813 386.6 335.772 373.012 335.348 369.502C334.924 365.992 333.924 363.455 330.45 360.706C326.97 357.965 320.043 357.965 320.043 357.965V363.803Z" fill="#1A213B"/>
<path d="M170.281 247.099L276.67 308.807L277.204 71.5902L171.483 10.2302L170.281 247.099Z" fill="#0085FF"/>
<g opacity="0.73">
<path d="M171.448 10.281C171.448 10.281 171.281 5.25587 171.448 3.45032C171.608 1.63751 173.101 -0.305825 175.415 0.651339C224.385 27.1111 273.071 58.7555 273.071 58.7555C273.071 58.7555 275.634 60.6916 276.301 62.5769C276.961 64.4695 277.232 72.0253 277.232 72.0253L171.448 10.281Z" fill="#77CCDD"/>
</g>
<path d="M261.164 57.7038C261.177 58.4942 261.65 59.2338 262.379 59.3571C263.109 59.4803 263.713 58.7407 263.734 57.7038C263.755 56.6741 263.15 55.9345 262.379 56.0577C261.615 56.1738 261.15 56.9134 261.164 57.7038ZM270.362 63.4322C270.375 64.2226 270.848 64.9623 271.577 65.0855C272.307 65.2088 272.911 64.4692 272.932 63.4322C272.953 62.4026 272.348 61.6629 271.577 61.7862C270.813 61.9022 270.348 62.6419 270.362 63.4322ZM265.763 60.568C265.776 61.3584 266.249 62.098 266.978 62.2213C267.708 62.3446 268.312 61.6049 268.333 60.568C268.354 59.5383 267.749 58.7987 266.978 58.922C266.214 59.038 265.749 59.7776 265.763 60.568Z" fill="#7ED8E9"/>
<path d="M270.98 138.193C270.994 138.984 271.466 139.723 272.196 139.847C272.925 139.97 273.529 139.23 273.55 138.193C273.571 137.164 272.967 136.424 272.196 136.547C271.431 136.663 270.966 137.403 270.98 138.193ZM272.744 138.933C272.599 138.839 272.55 138.65 272.633 138.498C272.717 138.346 272.911 138.295 273.057 138.382L374.527 200.315C374.673 200.402 374.722 200.597 374.631 200.75C374.548 200.902 374.361 200.953 374.215 200.859L272.744 138.933ZM379.508 197.856C379.508 197.856 382.697 199.495 384.517 200.576C385.017 200.859 385.65 200.946 385.893 200.329C386.136 199.713 385.761 199.372 385.455 199.118C384.1 198.205 381.85 197.044 380.245 196.044C379.842 195.841 378.612 195.529 378.612 196.399C378.612 197.269 379.508 197.856 379.508 197.856ZM379.508 207.29C379.508 207.29 382.697 208.929 384.517 210.01C385.017 210.292 385.65 210.379 385.893 209.763C386.136 209.147 385.761 208.806 385.455 208.552C384.1 207.638 381.85 206.478 380.245 205.478C379.842 205.275 378.612 204.963 378.612 205.833C378.612 206.703 379.508 207.29 379.508 207.29ZM379.508 202.519C379.508 202.519 386.351 206.507 388.171 207.595C388.672 207.878 389.304 207.965 389.547 207.348C389.79 206.725 389.415 206.384 389.109 206.137C387.755 205.224 381.85 201.707 380.245 200.706C379.842 200.503 378.612 200.191 378.612 201.062C378.612 201.932 379.508 202.519 379.508 202.519Z" fill="white"/>
<path d="M94.6542 108.659C94.5083 108.565 94.4597 108.376 94.543 108.224C94.6264 108.072 94.814 108.021 94.9599 108.108L173.893 156.198C174.046 156.293 174.095 156.481 174.005 156.633C173.921 156.786 173.734 156.836 173.588 156.749L94.6542 108.659ZM85.1227 108.986C85.1227 108.986 91.0903 112.133 92.9105 113.213C93.4107 113.503 94.0428 113.59 94.286 112.966C94.5361 112.35 94.154 112.009 93.8483 111.756C92.4936 110.842 87.4639 108.173 85.8591 107.173C85.4562 106.97 84.2265 106.658 84.2265 107.528C84.2265 108.398 85.1227 108.986 85.1227 108.986ZM85.1227 105.164C85.1227 105.164 88.3114 106.803 90.1316 107.883C90.6318 108.166 91.264 108.253 91.5071 107.637C91.7503 107.02 91.3751 106.68 91.0695 106.426C89.7148 105.512 87.4639 104.352 85.8591 103.351C85.4562 103.148 84.2265 102.837 84.2265 103.707C84.2265 104.577 85.1227 105.164 85.1227 105.164ZM85.1227 101.35C85.1227 101.35 88.3114 102.989 90.1316 104.069C90.6318 104.352 91.264 104.439 91.5071 103.823C91.7503 103.206 91.3751 102.866 91.0695 102.612C89.7148 101.698 87.4639 100.538 85.8591 99.5372C85.4562 99.3342 84.2265 99.0224 84.2265 99.8925C84.2265 100.763 85.1227 101.35 85.1227 101.35ZM173.463 157.286C173.477 158.076 173.949 158.816 174.678 158.939C175.408 159.063 176.012 158.323 176.033 157.286C176.054 156.256 175.45 155.517 174.678 155.64C173.914 155.756 173.449 156.496 173.463 157.286Z" fill="white"/>
<path d="M243.24 271.087C243.24 271.087 250.402 274.803 254.493 277.255C255.616 277.909 257.036 278.106 257.588 276.703C258.134 275.299 257.291 274.524 256.605 273.958C253.558 271.881 247.75 268.826 244.139 266.565C243.24 266.101 241.225 265.815 241.225 267.791C241.225 269.766 243.24 271.087 243.24 271.087ZM169.529 226.477C169.529 226.477 208.992 250.259 220.833 257.354C221.949 258.002 223.37 258.199 223.922 256.795C224.474 255.391 223.625 254.623 222.939 254.051C211.401 246.861 179.653 227.607 169.942 221.535C169.517 221.37 167.733 221.23 167.502 223.142C167.278 225.054 169.529 226.477 169.529 226.477ZM228.705 262.449C228.705 262.449 230.543 263.408 234.634 265.866C235.751 266.514 237.177 266.711 237.723 265.307C238.276 263.903 237.432 263.128 236.746 262.563C233.699 260.492 233.208 260.187 229.597 257.926C229.123 257.596 226.908 257.202 226.677 259.114C226.453 261.026 228.705 262.449 228.705 262.449Z" fill="#7ED8E9"/>
<path d="M215.698 243.176C215.698 243.176 243.665 259.584 255.5 266.679C256.617 267.333 258.037 267.53 258.589 266.126C259.142 264.723 258.292 263.948 257.612 263.382C246.069 256.185 226.344 244.586 216.633 238.514C215.862 238.025 213.902 237.936 213.671 239.841C213.446 241.753 215.698 243.176 215.698 243.176Z" fill="#7ED8E9"/>
<path d="M228.705 238.628C228.705 238.628 230.543 239.587 234.634 242.045C235.751 242.693 237.177 242.89 237.723 241.486C238.276 240.083 237.432 239.308 236.746 238.742C233.699 236.672 233.208 236.367 229.597 234.105C229.123 233.775 226.908 233.381 226.677 235.293C226.453 237.205 228.705 238.628 228.705 238.628ZM244.151 247.267C244.151 247.267 251.312 250.983 255.403 253.435C256.526 254.089 257.946 254.286 258.498 252.882C259.045 251.478 258.201 250.703 257.515 250.138C254.468 248.061 248.66 245.006 245.049 242.744C244.151 242.28 242.136 241.995 242.136 243.97C242.136 245.946 244.151 247.267 244.151 247.267Z" fill="#7ED8E9"/>
<path d="M205.035 212.902C205.035 212.902 206.873 213.861 210.964 216.319C212.081 216.967 213.507 217.164 214.053 215.761C214.606 214.357 213.762 213.582 213.076 213.016C210.03 210.946 209.538 210.641 205.927 208.379C205.453 208.049 203.238 207.655 203.007 209.567C202.783 211.479 205.035 212.902 205.035 212.902ZM169.554 191.229C169.554 191.229 184.484 200.516 196.325 207.611C197.442 208.259 198.862 208.456 199.414 207.052C199.967 205.648 199.117 204.879 198.431 204.308C186.894 197.117 180.199 192.639 170.488 186.566C169.718 186.077 167.757 185.988 167.527 187.894C167.302 189.806 169.554 191.229 169.554 191.229ZM218.69 220.69C218.69 220.69 242.755 235.77 254.59 242.865C255.707 243.513 257.127 243.71 257.679 242.306C258.231 240.902 257.382 240.127 256.702 239.562C245.158 232.371 229.336 222.1 219.625 216.027C218.854 215.538 216.894 215.449 216.663 217.355C216.439 219.267 218.69 220.69 218.69 220.69Z" fill="#7ED8E9"/>
<path d="M228.704 214.808C228.704 214.808 230.543 215.767 234.634 218.225C235.751 218.873 237.177 219.07 237.723 217.666C238.276 216.262 237.432 215.488 236.746 214.922C233.699 212.851 233.208 212.547 229.597 210.285C229.123 209.955 226.908 209.561 226.677 211.473C226.453 213.385 228.704 214.808 228.704 214.808ZM244.151 224.4C244.151 224.4 251.312 228.115 255.403 230.567C256.526 231.222 257.946 231.419 258.498 230.015C259.045 228.611 258.201 227.836 257.515 227.271C254.468 225.194 248.66 222.138 245.049 219.877C244.151 219.413 242.136 219.127 242.136 221.103C242.136 223.078 244.151 224.4 244.151 224.4ZM169.529 179.789C169.529 179.789 208.992 203.571 220.833 210.666C221.949 211.314 223.37 211.511 223.922 210.107C224.474 208.704 223.625 207.935 222.939 207.363C211.401 200.173 179.653 180.919 169.942 174.847C169.517 174.682 167.733 174.542 167.502 176.454C167.278 178.366 169.529 179.789 169.529 179.789Z" fill="#7ED8E9"/>
<path d="M215.589 195.898C215.589 195.898 243.659 212.896 255.5 219.991C256.617 220.645 258.037 220.842 258.589 219.438C259.142 218.035 258.292 217.26 257.606 216.694C246.069 209.497 226.234 197.308 216.524 191.235C215.753 190.746 213.792 190.657 213.562 192.563C213.337 194.475 215.589 195.898 215.589 195.898Z" fill="#7ED8E9"/>
<path d="M216.87 185.27C216.87 185.27 218.708 186.229 222.799 188.688C223.916 189.336 225.342 189.532 225.888 188.129C226.441 186.725 225.597 185.95 224.911 185.385C221.864 183.314 221.373 183.009 217.762 180.748C217.288 180.417 215.073 180.023 214.842 181.935C214.618 183.847 216.87 185.27 216.87 185.27ZM231.678 193.261C231.678 193.261 243.635 200.515 255.47 207.611C256.593 208.258 258.013 208.455 258.559 207.052C259.111 205.648 258.268 204.879 257.582 204.307C246.038 197.117 242.324 194.671 232.613 188.599C231.842 188.11 229.882 188.021 229.651 189.926C229.427 191.838 231.678 193.261 231.678 193.261Z" fill="#7ED8E9"/>
<path d="M189.558 156.686C189.558 156.686 191.396 157.646 195.487 160.104C196.604 160.752 198.03 160.949 198.576 159.545C199.129 158.141 198.285 157.366 197.599 156.801C194.553 154.73 194.061 154.425 190.45 152.164C189.976 151.833 187.761 151.44 187.53 153.352C187.306 155.264 189.558 156.686 189.558 156.686ZM169.499 145.316C169.499 145.316 176.66 149.032 180.751 151.484C181.874 152.138 183.294 152.335 183.846 150.931C184.393 149.528 183.549 148.753 182.863 148.187C179.816 146.11 174.008 143.055 170.397 140.794C169.499 140.33 167.484 140.044 167.484 142.019C167.484 143.995 169.499 145.316 169.499 145.316ZM204.124 165.497C204.124 165.497 243.586 189.279 255.427 196.374C256.544 197.022 257.964 197.219 258.516 195.815C259.069 194.411 258.219 193.643 257.533 193.071C245.995 185.881 214.247 166.627 204.536 160.555C204.112 160.39 202.327 160.25 202.097 162.162C201.872 164.074 204.124 165.497 204.124 165.497Z" fill="#7ED8E9"/>
<path d="M214.138 159.646C214.138 159.646 215.977 160.605 220.068 163.063C221.185 163.711 222.611 163.908 223.157 162.504C223.71 161.101 222.866 160.326 222.18 159.76C219.133 157.69 218.642 157.385 215.031 155.123C214.557 154.793 212.342 154.399 212.111 156.311C211.887 158.223 214.138 159.646 214.138 159.646ZM228.595 168.113C228.595 168.113 243.386 177.235 255.227 184.33C256.344 184.984 257.764 185.181 258.316 183.778C258.869 182.374 258.019 181.599 257.333 181.034C245.796 173.837 239.241 169.524 229.53 163.451C228.759 162.962 226.799 162.873 226.568 164.779C226.344 166.691 228.595 168.113 228.595 168.113Z" fill="#7ED8E9"/>
<path d="M189.558 133.819C189.558 133.819 191.396 134.778 195.487 137.236C196.604 137.884 198.03 138.081 198.576 136.677C199.129 135.273 198.285 134.499 197.599 133.933C194.553 131.862 194.061 131.558 190.45 129.296C189.976 128.966 187.761 128.572 187.53 130.484C187.306 132.396 189.558 133.819 189.558 133.819ZM169.499 122.449C169.499 122.449 176.66 126.165 180.751 128.617C181.874 129.271 183.294 129.468 183.846 128.064C184.393 126.66 183.549 125.885 182.863 125.32C179.816 123.243 174.008 120.187 170.397 117.926C169.499 117.462 167.484 117.176 167.484 119.152C167.484 121.127 169.499 122.449 169.499 122.449ZM204.124 141.676C204.124 141.676 243.586 165.459 255.427 172.554C256.544 173.202 257.964 173.399 258.516 171.995C259.069 170.591 258.219 169.822 257.533 169.251C245.995 162.06 214.247 142.807 204.536 136.734C204.112 136.569 202.327 136.43 202.097 138.342C201.872 140.254 204.124 141.676 204.124 141.676Z" fill="#7ED8E9"/>
<path d="M217.762 139.148C217.762 139.148 218.702 139.548 222.799 142C223.916 142.648 225.336 142.851 225.888 141.448C226.441 140.037 225.591 139.269 224.911 138.697C221.864 136.626 222.265 136.887 218.654 134.626C218.18 134.295 215.965 133.901 215.735 135.813C215.51 137.725 217.762 139.148 217.762 139.148ZM169.529 110.234C169.529 110.234 197.776 126.908 209.617 134.003C210.733 134.657 212.154 134.854 212.706 133.45C213.258 132.047 212.409 131.272 211.723 130.706C200.185 123.516 179.653 111.364 169.942 105.292C169.517 105.126 167.733 104.987 167.502 106.899C167.278 108.811 169.529 110.234 169.529 110.234ZM231.436 147.323C231.436 147.323 243.392 154.577 255.227 161.673C256.35 162.321 257.77 162.517 258.316 161.114C258.869 159.71 258.025 158.941 257.339 158.37C245.795 151.179 242.081 148.733 232.37 142.661C231.6 142.172 229.639 142.083 229.409 143.988C229.184 145.9 231.436 147.323 231.436 147.323Z" fill="#7ED8E9"/>
<path d="M189.558 109.998C189.558 109.998 191.397 110.957 195.488 113.416C196.604 114.063 198.031 114.26 198.577 112.857C199.129 111.453 198.285 110.678 197.6 110.112C194.553 108.042 194.061 107.737 190.45 105.475C189.977 105.145 187.761 104.751 187.531 106.663C187.306 108.575 189.558 109.998 189.558 109.998ZM204.124 118.808C204.124 118.808 243.586 142.591 255.427 149.686C256.544 150.334 257.964 150.531 258.517 149.127C259.069 147.723 258.219 146.954 257.533 146.383C245.996 139.192 214.248 119.939 204.537 113.867C204.112 113.701 202.328 113.562 202.097 115.474C201.872 117.386 204.124 118.808 204.124 118.808Z" fill="#7ED8E9"/>
<path d="M165.888 84.5076C165.888 84.5076 193.873 100.896 205.708 107.991C206.825 108.645 208.245 108.842 208.797 107.439C209.35 106.035 208.5 105.26 207.82 104.694C196.277 97.4976 176.011 85.6382 166.301 79.5656C165.876 79.4005 164.091 79.2607 163.861 81.1727C163.636 83.0847 165.888 84.5076 165.888 84.5076ZM214.138 112.857C214.138 112.857 215.977 113.816 220.068 116.274C221.185 116.922 222.611 117.119 223.157 115.715C223.709 114.312 222.866 113.537 222.18 112.971C219.133 110.9 218.642 110.596 215.03 108.334C214.557 108.004 212.342 107.61 212.111 109.522C211.887 111.434 214.138 112.857 214.138 112.857ZM228.941 121.458C228.941 121.458 251.312 134.74 255.403 137.192C256.526 137.84 257.946 138.043 258.498 136.639C259.045 135.235 258.201 134.46 257.515 133.895C254.474 131.818 233.451 119.196 229.839 116.935C228.941 116.471 226.926 116.185 226.926 118.161C226.926 120.136 228.941 121.458 228.941 121.458ZM165.888 84.5076C165.888 84.5076 193.873 100.896 205.708 107.991C206.825 108.645 208.245 108.842 208.797 107.439C209.35 106.035 208.5 105.26 207.82 104.694C196.277 97.4976 176.011 85.6382 166.301 79.5656C165.876 79.4005 164.091 79.2607 163.861 81.1727C163.636 83.0847 165.888 84.5076 165.888 84.5076Z" fill="#7ED8E9"/>
<path d="M189.558 87.131C189.558 87.131 191.396 88.0902 195.487 90.5484C196.604 91.1963 198.03 91.3933 198.576 89.9894C199.129 88.5856 198.285 87.8107 197.599 87.2453C194.553 85.1746 194.061 84.8697 190.45 82.6083C189.976 82.278 187.761 81.8842 187.53 83.7962C187.306 85.7081 189.558 87.131 189.558 87.131ZM170.409 75.7608C170.409 75.7608 177.571 79.4768 181.661 81.9287C182.784 82.5829 184.204 82.7798 184.757 81.376C185.303 79.9722 184.459 79.1973 183.774 78.6319C180.727 76.5548 174.919 73.4994 171.307 71.2381C170.409 70.7744 168.394 70.4886 168.394 72.4641C168.394 74.4396 170.409 75.7608 170.409 75.7608ZM204.124 94.9885C204.124 94.9885 243.586 118.771 255.427 125.866C256.544 126.514 257.964 126.711 258.516 125.307C259.069 123.903 258.219 123.135 257.533 122.563C245.995 115.372 214.247 96.1192 204.536 90.0466C204.112 89.8815 202.327 89.7417 202.097 91.6537C201.872 93.5657 204.124 94.9885 204.124 94.9885Z" fill="#7ED8E9"/>
<path d="M229.615 99.5172C229.615 99.5172 231.454 100.476 235.545 102.935C236.661 103.582 238.088 103.779 238.634 102.376C239.186 100.972 238.342 100.197 237.657 99.6315C234.61 97.5607 234.118 97.2558 230.507 94.9945C230.034 94.6642 227.818 94.2703 227.588 96.1823C227.363 98.0943 229.615 99.5172 229.615 99.5172ZM244.151 108.156C244.151 108.156 251.312 111.872 255.403 114.324C256.526 114.978 257.946 115.175 258.498 113.771C259.045 112.367 258.201 111.592 257.515 111.027C254.468 108.95 248.66 105.895 245.049 103.633C244.151 103.17 242.136 102.884 242.136 104.859C242.136 106.835 244.151 108.156 244.151 108.156Z" fill="#7ED8E9"/>
<path d="M205.034 72.8388C205.034 72.8388 206.873 73.7979 210.964 76.2562C212.081 76.9041 213.507 77.101 214.053 75.6972C214.606 74.2934 213.762 73.5184 213.076 72.9531C210.029 70.8823 209.538 70.5774 205.927 68.3161C205.453 67.9858 203.238 67.5919 203.007 69.5039C202.783 71.4159 205.034 72.8388 205.034 72.8388ZM219.601 80.6264C219.601 80.6264 243.665 95.7063 255.5 102.802C256.617 103.449 258.037 103.646 258.589 102.243C259.142 100.839 258.292 100.064 257.612 99.4985C246.069 92.3079 230.246 82.0366 220.535 75.964C219.764 75.4749 217.804 75.3859 217.573 77.2916C217.349 79.2035 219.601 80.6264 219.601 80.6264ZM169.529 50.9812C169.529 50.9812 184.514 60.2807 196.355 67.376C197.472 68.0239 198.892 68.2271 199.445 66.8233C199.997 65.4132 199.147 64.6446 198.468 64.0729C186.924 56.8823 180.175 52.3914 170.464 46.3188C169.693 45.8297 167.733 45.7408 167.502 47.6464C167.278 49.5584 169.529 50.9812 169.529 50.9812Z" fill="#7ED8E9"/>
<path d="M244.175 84.2726C244.175 84.2726 251.337 87.9886 255.427 90.4405C256.55 91.0948 257.97 91.2917 258.523 89.8879C259.069 88.4841 258.225 87.7091 257.54 87.1438C254.493 85.0667 248.684 82.0113 245.073 79.75C244.175 79.2863 242.16 79.0004 242.16 80.9759C242.16 82.9514 244.175 84.2726 244.175 84.2726ZM229.615 75.6973C229.615 75.6973 231.454 76.6565 235.545 79.1148C236.661 79.7627 238.088 79.9596 238.634 78.5558C239.186 77.152 238.343 76.377 237.657 75.8117C234.61 73.7409 234.118 73.436 230.507 71.1746C230.034 70.8443 227.818 70.4505 227.588 72.3625C227.363 74.2745 229.615 75.6973 229.615 75.6973ZM170.44 39.7255C170.44 39.7255 209.902 63.5077 221.743 70.603C222.86 71.2509 224.28 71.4478 224.832 70.044C225.385 68.6402 224.535 67.8716 223.849 67.2999C212.312 60.1093 180.563 40.8561 170.853 34.7835C170.428 34.6184 168.643 34.4786 168.413 36.3906C168.188 38.3026 170.44 39.7255 170.44 39.7255Z" fill="#7ED8E9"/>
<path d="M215.352 54.0175C215.352 54.0175 243.337 70.4059 255.172 77.5012C256.289 78.1554 257.709 78.3523 258.262 76.9485C258.814 75.5447 257.964 74.7698 257.285 74.2044C245.741 67.0075 225.476 55.1482 215.765 49.0756C215.34 48.9105 213.556 48.7707 213.325 50.6827C213.1 52.5947 215.352 54.0175 215.352 54.0175ZM201.696 45.4422C201.696 45.4422 203.535 46.4014 207.626 48.8597C208.743 49.5076 210.169 49.7045 210.715 48.3007C211.268 46.8969 210.424 46.1219 209.738 45.5566C206.691 43.4858 206.2 43.1809 202.589 40.9196C202.115 40.5892 199.9 40.1954 199.669 42.1074C199.445 44.0194 201.696 45.4422 201.696 45.4422ZM169.469 26.17C169.469 26.17 181.018 33.062 192.853 40.1573C193.976 40.8116 195.396 41.0085 195.949 39.6047C196.495 38.2009 195.651 37.4259 194.966 36.8606C183.422 29.6637 179.592 27.3007 169.881 21.2281C169.457 21.063 167.672 20.9232 167.442 22.8352C167.217 24.7472 169.469 26.17 169.469 26.17Z" fill="#7ED8E9"/>
</svg>
